<svg id="Layer_1" data-name="Layer 1" xmlns="http://www.w3.org/2000/svg" xmlns:xlink="http://www.w3.org/1999/xlink" width="335.29" height="469.68" viewBox="0 0 335.29 469.68">
  <defs>
    <linearGradient id="linear-gradient" x1="117.69" y1="286" x2="117.69" y2="205.2" gradientUnits="userSpaceOnUse">
      <stop offset="0.39" stop-color="#d1d3d4" stop-opacity="0"/>
      <stop offset="1" stop-color="#d1d3d4"/>
    </linearGradient>
    <linearGradient id="linear-gradient-2" x1="218.65" y1="245.7" x2="218.65" y2="161.71" xlink:href="#linear-gradient"/>
    <linearGradient id="linear-gradient-3" x1="69.1" y1="322.04" x2="263.16" y2="322.04" gradientUnits="userSpaceOnUse">
      <stop offset="0" stop-color="#e8e7e5"/>
      <stop offset="1" stop-color="#fff"/>
    </linearGradient>
    <linearGradient id="linear-gradient-4" x1="60.17" y1="182.28" x2="270.86" y2="182.28" xlink:href="#linear-gradient-3"/>
  </defs>
  <title>logo-css.la</title>
  <polygon points="303.85 433 167.64 469.68 31.43 433 0 92.48 335.29 92.48 303.85 433" fill="#2062af"/>
  <polygon points="166.56 120.06 166.56 440.43 166.87 440.51 277.1 410.83 302.54 120.06 166.56 120.06" fill="#3c9cd7"/>
  <g>
    <polygon points="166.44 205.2 68.95 245.81 72.18 286 166.44 245.7 266.7 202.84 270.86 161.71 166.44 205.2" fill="#fff"/>
    <polygon points="68.95 245.81 72.18 286 166.44 245.7 166.44 205.2 68.95 245.81" fill="url(#linear-gradient)"/>
    <polygon points="270.86 161.71 166.44 205.2 166.44 245.7 266.7 202.84 270.86 161.71" fill="url(#linear-gradient-2)"/>
    <polygon points="69.1 245.81 72.33 286 216.96 286.47 213.72 340.06 166.13 353.46 120.38 341.91 117.61 308.64 75.1 308.64 80.65 372.87 166.59 398.28 252.07 373.33 263.16 245.81 69.1 245.81" fill="url(#linear-gradient-3)"/>
    <g opacity="0.05">
      <polygon points="166.44 245.81 68.95 245.81 72.18 286 166.44 286.31 166.44 245.81" fill="#231f20"/>
      <polygon points="166.44 353.33 165.98 353.46 120.23 341.91 117.46 308.64 74.95 308.64 80.5 372.87 166.44 398.28 166.44 353.33" fill="#231f20"/>
    </g>
    <polygon points="60.17 161.71 270.86 161.71 266.7 202.84 65.25 202.84 60.17 161.71" fill="url(#linear-gradient-4)"/>
    <polygon points="166.44 161.71 60.17 161.71 65.25 202.84 166.44 202.84 166.44 161.71" fill="#231f20" opacity="0.05"/>
  </g>
  <g>
    <g>
      <polygon points="58.17 42.45 58.17 22.18 87.74 22.18 87.74 0 35.99 0 35.99 62.68 87.74 62.68 87.74 42.45 58.17 42.45" fill="#231f20"/>
      <path d="M140.94,22.18h20.67V0H109.86V22.18c6.92,6.92,10.53,10.24,20.55,20.25l-20.55,0V62.68h51.75V42.45Z" fill="#231f20"/>
      <path d="M214.29,22.18H235V0H183.21V22.18c6.92,6.92,10.54,10.24,20.55,20.25l-20.55,0V62.68H235V42.45Z" fill="#231f20"/>
    </g>
    <text transform="translate(241.54 62.2)" font-size="60" fill="#231f20" font-family="AktivGrotesk-Black, Aktiv Grotesk" font-weight="800">.<tspan x="17.28" y="0" fill="#ff00a5" letter-spacing="0em">l</tspan><tspan x="35.82" y="0" fill="#ff00a5">a</tspan></text>
  </g>
</svg>
